<svg xmlns:dc="http://purl.org/dc/elements/1.1/" xmlns:cc="http://web.resource.org/cc/" xmlns:rdf="http://www.w3.org/1999/02/22-rdf-syntax-ns#"  xmlns="http://www.w3.org/2000/svg" xmlns:sodipodi="http://inkscape.sourceforge.net/DTD/sodipodi-0.dtd" xmlns:inkscape="http://www.inkscape.org/namespaces/inkscape" width="596" height="556" id="svg2" sodipodi:version="0.32" inkscape:version="0.43" sodipodi:docbase="s:\soft\Inkscape" sodipodi:docname="xo_game.svg" version="1.0" xmlns:xlink="http://www.w3.org/1999/xlink" viewBox="0 -0.9267399907112122 596.2520141601562 556.9267578125"><rect id="svgEditorBackground" x="0" y="-0.9267399907112122" width="596.2520141601562" height="556.9267578125" style="fill:none;stroke:none;"/>
  <defs id="defs4"/>
  <sodipodi:namedview id="base" pagecolor="#ffffff" bordercolor="#666666" borderopacity="1.0" inkscape:pageopacity="0.0" inkscape:pageshadow="2" inkscape:zoom="0.5" inkscape:cx="375" inkscape:cy="280" inkscape:document-units="px" inkscape:current-layer="layer1" inkscape:window-width="1024" inkscape:window-height="719" inkscape:window-x="-4" inkscape:window-y="-4"/>
  <metadata id="metadata7">
    <rdf:RDF>
      <cc:Work rdf:about="">
        <dc:format>image/svg+xml</dc:format>
        <dc:type rdf:resource="http://purl.org/dc/dcmitype/StillImage"/>
      </cc:Work>
    </rdf:RDF>
  </metadata>
  <g inkscape:label="Layer 1" inkscape:groupmode="layer" id="layer1">
    <path style="fill:#000000;fill-opacity:1;fill-rule:nonzero;stroke:none;stroke-width:1px;stroke-linecap:butt;stroke-linejoin:miter;stroke-opacity:1" id="path1313" d="M 197.04201,0.33146 C 206.81073,181.55357 208.47518,363.95062 206.61915,545.5889 L 186.0057,556 C 196.85374,375.72976 199.5351,191.37182 172.82991,12.66815 L 197.04201,0.33146 z "/>
    <path style="fill:#000000;fill-opacity:1;fill-rule:nonzero;stroke:none;stroke-width:1px;stroke-linecap:butt;stroke-linejoin:miter;stroke-opacity:1" id="path1315" d="M 382.17349,34.14425 C 389.75503,30.02944 396.96508,25.14064 404.91809,21.79984 C 412.33536,18.68408 402.99606,37.79294 402.69205,45.8323 C 401.26896,83.46528 402.15533,121.05035 402.60218,158.69531 C 403.86797,265.33329 401.86322,371.08659 393.29359,477.39863 C 391.89734,493.80089 390.4513,510.1988 389.04509,526.6001 L 365.67549,538.1869 C 368.01704,521.3585 370.41864,504.5379 372.58873,487.68602 C 387.63429,364.17068 389.53646,241.47346 383.04957,117.24679 C 382.8899,114.18911 372.4629,39.43865 380.4695,33.25035 C 387.87533,27.52639 396.26158,23.19801 404.15762,18.17184 L 382.17349,34.14425 z "/>
    <path style="fill:#000000;fill-opacity:1;fill-rule:nonzero;stroke:none;stroke-width:1px;stroke-linecap:butt;stroke-linejoin:miter;stroke-opacity:1" id="path1319" d="M 21.984131,223.88612 C 212.83617,203.31767 404.82919,192.94723 596.252,177.63636 L 578.57709,190.66031 C 385.43251,201.11263 191.37674,211.61568 0,239.85853 L 21.984131,223.88612 z "/>
    <path style="fill:#000000;fill-opacity:1;fill-rule:nonzero;stroke:none;stroke-width:1px;stroke-linecap:butt;stroke-linejoin:miter;stroke-opacity:1" id="path1323" d="M 39.126978,372.45755 C 198.49576,345.49326 362.40293,346.0278 523.84316,338.01351 C 569.06552,335.86076 547.69727,336.84446 587.94697,335.04148 L 569.56863,348.48733 C 530.64455,349.30652 551.32829,348.82335 507.51833,349.97536 C 344.01043,355.04816 177.71858,355.60015 17.142852,388.42996 L 39.126978,372.45755 z "/>
    
    
    
    
    
    
    
    
    
    
    
    
  </g>
</svg>